<svg viewBox="0 0 1325 297" fill="none" xmlns="http://www.w3.org/2000/svg">
<path fill-rule="evenodd" clip-rule="evenodd" d="M1310.8 177.754C1319.52 168.208 1324 158.429 1324 148.5C1324 138.571 1319.52 128.792 1310.8 119.246C1302.08 109.695 1289.18 100.434 1272.47 91.5807C1239.06 73.8746 1190.65 57.8987 1130.74 44.4704C1035.04 23.0199 910.152 8.10059 770.547 2.96578C856.627 9.40178 933.566 23.3597 994.082 42.5414C1036.53 55.9955 1070.95 72.0369 1094.78 89.8969C1118.6 107.744 1132 127.537 1132 148.5C1132 169.463 1118.6 189.256 1094.78 207.103C1070.95 224.963 1036.53 241.005 994.082 254.459C933.566 273.64 856.627 287.598 770.547 294.034C910.152 288.899 1035.04 273.98 1130.74 252.53C1190.65 239.101 1239.06 223.125 1272.47 205.419C1289.18 196.566 1302.08 187.305 1310.8 177.754ZM739.41 296.01C724.734 296.39 709.912 296.663 694.96 296.825C687.365 296.907 679.736 296.96 672.076 296.985C668.889 296.995 665.697 297 662.5 297C659.303 297 656.111 296.995 652.924 296.985C645.264 296.96 637.635 296.907 630.04 296.825C615.088 296.663 600.266 296.39 585.59 296.01C255.934 287.467 0 224.683 0 148.5C0 72.3168 255.934 9.53249 585.591 0.989925C600.266 0.609623 615.088 0.336822 630.04 0.175127C637.635 0.0929905 645.264 0.0395228 652.924 0.0151963C656.111 0.0050768 659.303 0 662.5 0C665.697 0 668.889 0.0050768 672.076 0.0151963C679.736 0.0395228 687.365 0.0929905 694.96 0.175126C709.912 0.336822 724.734 0.609623 739.409 0.989925C1069.07 9.53249 1325 72.3168 1325 148.5C1325 224.683 1069.07 287.467 739.41 296.01ZM712.785 1.84592C763.612 7.68095 809.075 22.1928 844.374 42.6292C890.943 69.5904 920 106.986 920 148.5C920 190.014 890.943 227.41 844.374 254.371C809.075 274.807 763.612 289.319 712.785 295.154C821.991 291.458 919.941 275.861 993.477 252.552C1035.81 239.133 1070 223.175 1093.58 205.503C1117.18 187.817 1130 168.544 1130 148.5C1130 128.456 1117.18 109.183 1093.58 91.4973C1070 73.8247 1035.81 57.867 993.477 44.4479C919.941 21.1392 821.991 5.54215 712.785 1.84592ZM676.612 295.779C741.675 293.732 800.23 277.617 843.372 252.64C889.637 225.855 918 189 918 148.5C918 108 889.637 71.1454 843.372 44.3601C800.23 19.3831 741.675 3.26841 676.612 1.22143C693.647 6.65204 708.761 21.7296 720.301 43.0181C734.963 70.0641 744 107.359 744 148.5C744 189.641 734.963 226.936 720.301 253.982C708.761 275.27 693.647 290.348 676.612 295.779ZM554.453 2.96578C468.373 9.40177 391.434 23.3597 330.918 42.5414C288.472 55.9955 254.05 72.0369 230.217 89.8969C206.403 107.744 193 127.537 193 148.5C193 169.463 206.403 189.256 230.217 207.103C254.05 224.963 288.472 241.005 330.918 254.459C391.434 273.64 468.373 287.598 554.453 294.034C414.848 288.899 289.957 273.98 194.26 252.53C134.353 239.101 85.9415 223.125 52.5308 205.419C35.8245 196.566 22.9174 187.305 14.1982 177.754C5.48404 168.208 1 158.429 1 148.5C1 138.571 5.48404 128.792 14.1982 119.246C22.9174 109.695 35.8245 100.434 52.5308 91.5807C85.9415 73.8746 134.353 57.8987 194.26 44.4704C289.957 23.0199 414.848 8.10059 554.453 2.96578ZM612.215 295.154C561.388 289.319 515.925 274.807 480.626 254.371C434.057 227.41 405 190.014 405 148.5C405 106.986 434.057 69.5904 480.626 42.6292C515.925 22.1928 561.388 7.68095 612.215 1.84592C503.009 5.54215 405.059 21.1392 331.523 44.4479C289.187 57.867 254.999 73.8247 231.417 91.4973C207.817 109.183 195 128.456 195 148.5C195 168.544 207.817 187.817 231.417 205.503C254.999 223.175 289.187 239.133 331.523 252.552C405.059 275.861 503.009 291.458 612.215 295.154ZM648.388 1.22143C583.325 3.26841 524.77 19.3831 481.628 44.3601C435.363 71.1454 407 108 407 148.5C407 189 435.363 225.855 481.628 252.64C524.77 277.617 583.325 293.732 648.388 295.779C631.353 290.348 616.239 275.27 604.699 253.982C590.037 226.936 581 189.641 581 148.5C581 107.359 590.037 70.0641 604.699 43.0181C616.239 21.7296 631.353 6.65204 648.388 1.22143ZM718.543 253.029C733.017 226.328 742 189.374 742 148.5C742 107.626 733.017 70.6716 718.543 43.9712C704.048 17.2317 684.189 1 662.5 1C640.811 1 620.952 17.2317 606.457 43.9712C591.983 70.6716 583 107.626 583 148.5C583 189.374 591.983 226.328 606.457 253.029C620.952 279.768 640.811 296 662.5 296C684.189 296 704.048 279.768 718.543 253.029Z" fill="white"/>
</svg>
