<svg width="128" height="128" viewBox="0 0 128 128" fill="none" xmlns="http://www.w3.org/2000/svg">
<path d="M0 24C0 10.7452 10.7452 0 24 0H104C117.255 0 128 10.7452 128 24V104C128 117.255 117.255 128 104 128H24C10.7452 128 0 117.255 0 104V24Z" fill="#171717"/>
<path fill-rule="evenodd" clip-rule="evenodd" d="M56.0547 22H70.9453L69.7042 54.4652L98.5547 37.0521L106 49.4479L75.5987 64.5L106 79.5521L98.5547 91.9478L69.7045 74.5346L70.9453 107H56.0547L57.2957 74.5348L28.4452 91.9478L21 79.5521L51.4012 64.5L21 49.4479L28.4452 37.0521L57.2954 54.4654L56.0547 22ZM57.4345 23.3281L58.7164 56.8741L28.8985 38.8769L22.8803 48.8968L54.3949 64.5L22.8803 80.1031L28.8985 90.123L58.7164 72.1259L57.4345 105.672H69.5654L68.2836 72.1259L98.1015 90.123L104.12 80.1031L72.605 64.5L104.12 48.8968L98.1015 38.8769L68.2836 56.8741L69.5654 23.3281H57.4345Z" fill="#EDEDED"/>
</svg>
