<svg viewBox="0 0 32 32" fill="none" xmlns="http://www.w3.org/2000/svg">
<path d="M13.535 19.5637L2.88823 25.9898L0.353931 21.7704L11.5562 16.224L12.0087 16L11.5562 15.776L0.353931 10.2296L2.88823 6.01017L13.535 12.4363L13.9317 12.6757L13.9141 12.2127L13.4568 0.25H18.5432L18.0859 12.2127L18.0683 12.6757L18.465 12.4363L29.1118 6.01017L31.6461 10.2296L20.4438 15.776L19.9913 16L20.4438 16.224L31.6461 21.7704L29.1118 25.9898L18.465 19.5637L18.0683 19.3243L18.0859 19.7873L18.5432 31.75H13.4568L13.9141 19.7873L13.9317 19.3243L13.535 19.5637Z" stroke="white" stroke-width="0.5"/>
</svg>
